<mxfile host="app.diagrams.net" modified="2023-04-25T09:44:04.884Z" agent="Mozilla/5.0 (Windows NT 10.0; Win64; x64) AppleWebKit/537.36 (KHTML, like Gecko) Chrome/112.0.0.0 Safari/537.36" etag="bbJdhk0PxlzvqvG5sueu" version="21.2.1" type="github">
  <diagram name="第 1 页" id="0zLslpOoLGYkL6YDQj_X">
    <mxGraphModel dx="3500" dy="1980" grid="1" gridSize="10" guides="1" tooltips="1" connect="1" arrows="1" fold="1" page="1" pageScale="1" pageWidth="827" pageHeight="1169" math="0" shadow="0">
      <root>
        <mxCell id="0" />
        <mxCell id="1" parent="0" />
        <mxCell id="bM8eNRjOvd8zT3DbbcMf-208" value="&lt;font color=&quot;#0000cc&quot; style=&quot;font-size: 16px;&quot;&gt;常规迭代开发流程&lt;/font&gt;" style="html=1;align=center;verticalAlign=top;rounded=1;absoluteArcSize=1;arcSize=10;dashed=1;whiteSpace=wrap;fillColor=#dae8fc;strokeColor=#6c8ebf;" vertex="1" parent="1">
          <mxGeometry x="315" y="220" width="970" height="1070" as="geometry" />
        </mxCell>
        <mxCell id="bM8eNRjOvd8zT3DbbcMf-209" value="&lt;font style=&quot;font-size: 16px;&quot; color=&quot;#ff0000&quot;&gt;非迭代的产品临时修复（hotfix）&lt;/font&gt;" style="html=1;align=center;verticalAlign=top;rounded=1;absoluteArcSize=1;arcSize=10;dashed=1;whiteSpace=wrap;fillColor=#f8cecc;strokeColor=#b85450;" vertex="1" parent="1">
          <mxGeometry x="334" y="1320" width="501" height="440" as="geometry" />
        </mxCell>
        <mxCell id="bM8eNRjOvd8zT3DbbcMf-210" style="edgeStyle=orthogonalEdgeStyle;rounded=0;orthogonalLoop=1;jettySize=auto;html=1;" edge="1" parent="1" source="bM8eNRjOvd8zT3DbbcMf-216" target="bM8eNRjOvd8zT3DbbcMf-276">
          <mxGeometry relative="1" as="geometry">
            <mxPoint x="245.0000000000001" y="340" as="targetPoint" />
            <Array as="points" />
          </mxGeometry>
        </mxCell>
        <mxCell id="bM8eNRjOvd8zT3DbbcMf-211" style="endArrow=open;startArrow=none;endFill=0;startFill=0;endSize=8;html=1;verticalAlign=bottom;labelBackgroundColor=none;strokeWidth=1;rounded=1;" edge="1" parent="1" source="bM8eNRjOvd8zT3DbbcMf-216" target="bM8eNRjOvd8zT3DbbcMf-220">
          <mxGeometry relative="1" as="geometry" />
        </mxCell>
        <mxCell id="bM8eNRjOvd8zT3DbbcMf-212" value="dev分支重新checkout" style="endArrow=open;startArrow=none;endFill=0;startFill=0;endSize=8;html=1;verticalAlign=bottom;labelBackgroundColor=none;strokeWidth=1;rounded=1;jumpStyle=arc;" edge="1" parent="1" source="bM8eNRjOvd8zT3DbbcMf-216" target="bM8eNRjOvd8zT3DbbcMf-222">
          <mxGeometry x="0.3039" relative="1" as="geometry">
            <mxPoint x="310" y="330" as="targetPoint" />
            <Array as="points">
              <mxPoint x="405" y="340" />
            </Array>
            <mxPoint as="offset" />
          </mxGeometry>
        </mxCell>
        <mxCell id="bM8eNRjOvd8zT3DbbcMf-213" value="新功能切出分支：feature-1" style="endArrow=open;startArrow=none;endFill=0;startFill=0;endSize=8;html=1;verticalAlign=bottom;labelBackgroundColor=none;strokeWidth=1;rounded=1;jumpStyle=arc;" edge="1" parent="1" source="bM8eNRjOvd8zT3DbbcMf-216" target="bM8eNRjOvd8zT3DbbcMf-226">
          <mxGeometry x="0.7193" relative="1" as="geometry">
            <mxPoint x="440" y="370" as="targetPoint" />
            <Array as="points">
              <mxPoint x="800" y="340" />
            </Array>
            <mxPoint as="offset" />
          </mxGeometry>
        </mxCell>
        <mxCell id="bM8eNRjOvd8zT3DbbcMf-214" style="endArrow=open;startArrow=none;endFill=0;startFill=0;endSize=8;html=1;verticalAlign=bottom;labelBackgroundColor=none;strokeWidth=1;rounded=1;jumpStyle=arc;" edge="1" parent="1" source="bM8eNRjOvd8zT3DbbcMf-216" target="bM8eNRjOvd8zT3DbbcMf-255">
          <mxGeometry relative="1" as="geometry">
            <Array as="points">
              <mxPoint x="1070" y="320" />
            </Array>
          </mxGeometry>
        </mxCell>
        <mxCell id="bM8eNRjOvd8zT3DbbcMf-215" value="新功能切出分支：feature-2" style="edgeLabel;html=1;align=center;verticalAlign=middle;resizable=0;points=[];" vertex="1" connectable="0" parent="bM8eNRjOvd8zT3DbbcMf-214">
          <mxGeometry x="0.3816" y="-1" relative="1" as="geometry">
            <mxPoint x="80" y="-1" as="offset" />
          </mxGeometry>
        </mxCell>
        <mxCell id="bM8eNRjOvd8zT3DbbcMf-216" value="" style="ellipse;html=1;" vertex="1" parent="1">
          <mxGeometry x="244" y="270" width="10" height="10" as="geometry" />
        </mxCell>
        <mxCell id="bM8eNRjOvd8zT3DbbcMf-217" value="main分支最近一次提交节点" style="text;html=1;align=center;verticalAlign=middle;resizable=0;points=[];autosize=1;strokeColor=none;fillColor=none;" vertex="1" parent="1">
          <mxGeometry x="254" y="250" width="170" height="30" as="geometry" />
        </mxCell>
        <mxCell id="bM8eNRjOvd8zT3DbbcMf-218" value="main分支" style="edgeStyle=orthogonalEdgeStyle;rounded=0;orthogonalLoop=1;jettySize=auto;html=1;" edge="1" parent="1" target="bM8eNRjOvd8zT3DbbcMf-216">
          <mxGeometry relative="1" as="geometry">
            <mxPoint x="249" y="130" as="sourcePoint" />
          </mxGeometry>
        </mxCell>
        <mxCell id="bM8eNRjOvd8zT3DbbcMf-219" style="edgeStyle=orthogonalEdgeStyle;rounded=0;orthogonalLoop=1;jettySize=auto;html=1;" edge="1" parent="1" source="bM8eNRjOvd8zT3DbbcMf-220" target="bM8eNRjOvd8zT3DbbcMf-224">
          <mxGeometry relative="1" as="geometry" />
        </mxCell>
        <mxCell id="bM8eNRjOvd8zT3DbbcMf-220" value="最近一次产品发布" style="html=1;align=center;verticalAlign=top;rounded=1;absoluteArcSize=1;arcSize=10;dashed=0;whiteSpace=wrap;" vertex="1" parent="1">
          <mxGeometry x="30" y="280" width="140" height="40" as="geometry" />
        </mxCell>
        <mxCell id="bM8eNRjOvd8zT3DbbcMf-221" style="edgeStyle=orthogonalEdgeStyle;rounded=0;orthogonalLoop=1;jettySize=auto;html=1;" edge="1" parent="1" source="bM8eNRjOvd8zT3DbbcMf-222" target="bM8eNRjOvd8zT3DbbcMf-238">
          <mxGeometry relative="1" as="geometry">
            <mxPoint x="405" y="509.3333333333333" as="targetPoint" />
          </mxGeometry>
        </mxCell>
        <mxCell id="bM8eNRjOvd8zT3DbbcMf-222" value="" style="ellipse;html=1;" vertex="1" parent="1">
          <mxGeometry x="400" y="380" width="10" height="10" as="geometry" />
        </mxCell>
        <mxCell id="bM8eNRjOvd8zT3DbbcMf-223" style="endArrow=open;startArrow=none;endFill=0;startFill=0;endSize=8;html=1;verticalAlign=bottom;labelBackgroundColor=none;strokeWidth=1;rounded=1;" edge="1" parent="1" source="bM8eNRjOvd8zT3DbbcMf-224" target="bM8eNRjOvd8zT3DbbcMf-216">
          <mxGeometry relative="1" as="geometry">
            <mxPoint x="214" y="300" as="targetPoint" />
            <Array as="points">
              <mxPoint x="234" y="345" />
              <mxPoint x="234" y="280" />
            </Array>
          </mxGeometry>
        </mxCell>
        <mxCell id="bM8eNRjOvd8zT3DbbcMf-224" value="强制重置(force reset) dev分支到最新main分支" style="html=1;align=center;verticalAlign=top;rounded=1;absoluteArcSize=1;arcSize=10;dashed=0;whiteSpace=wrap;" vertex="1" parent="1">
          <mxGeometry x="30" y="350" width="140" height="40" as="geometry" />
        </mxCell>
        <mxCell id="bM8eNRjOvd8zT3DbbcMf-225" style="edgeStyle=orthogonalEdgeStyle;rounded=0;orthogonalLoop=1;jettySize=auto;html=1;" edge="1" parent="1" source="bM8eNRjOvd8zT3DbbcMf-226" target="bM8eNRjOvd8zT3DbbcMf-229">
          <mxGeometry relative="1" as="geometry" />
        </mxCell>
        <mxCell id="bM8eNRjOvd8zT3DbbcMf-226" value="" style="ellipse;html=1;" vertex="1" parent="1">
          <mxGeometry x="795" y="400" width="10" height="10" as="geometry" />
        </mxCell>
        <mxCell id="bM8eNRjOvd8zT3DbbcMf-227" value="分支提交记录1" style="text;html=1;align=center;verticalAlign=middle;resizable=0;points=[];autosize=1;strokeColor=none;fillColor=none;" vertex="1" parent="1">
          <mxGeometry x="815" y="390" width="100" height="30" as="geometry" />
        </mxCell>
        <mxCell id="bM8eNRjOvd8zT3DbbcMf-228" style="edgeStyle=orthogonalEdgeStyle;rounded=0;orthogonalLoop=1;jettySize=auto;html=1;" edge="1" parent="1" source="bM8eNRjOvd8zT3DbbcMf-229" target="bM8eNRjOvd8zT3DbbcMf-233">
          <mxGeometry relative="1" as="geometry" />
        </mxCell>
        <mxCell id="bM8eNRjOvd8zT3DbbcMf-229" value="" style="ellipse;html=1;dashed=1;" vertex="1" parent="1">
          <mxGeometry x="795" y="470" width="10" height="10" as="geometry" />
        </mxCell>
        <mxCell id="bM8eNRjOvd8zT3DbbcMf-230" style="endArrow=open;startArrow=none;endFill=0;startFill=0;endSize=8;html=1;verticalAlign=bottom;labelBackgroundColor=none;strokeWidth=1;rounded=1;jumpStyle=arc;" edge="1" parent="1" source="bM8eNRjOvd8zT3DbbcMf-233" target="bM8eNRjOvd8zT3DbbcMf-238">
          <mxGeometry relative="1" as="geometry">
            <mxPoint x="348" y="480" as="targetPoint" />
            <mxPoint x="358.0000000000002" y="525" as="sourcePoint" />
            <Array as="points" />
          </mxGeometry>
        </mxCell>
        <mxCell id="bM8eNRjOvd8zT3DbbcMf-231" value="合并分支feature-1，进行集成测试" style="edgeLabel;html=1;align=center;verticalAlign=middle;resizable=0;points=[];" vertex="1" connectable="0" parent="bM8eNRjOvd8zT3DbbcMf-230">
          <mxGeometry x="0.1824" y="-1" relative="1" as="geometry">
            <mxPoint as="offset" />
          </mxGeometry>
        </mxCell>
        <mxCell id="bM8eNRjOvd8zT3DbbcMf-232" style="edgeStyle=orthogonalEdgeStyle;rounded=0;orthogonalLoop=1;jettySize=auto;html=1;" edge="1" parent="1" source="bM8eNRjOvd8zT3DbbcMf-233" target="bM8eNRjOvd8zT3DbbcMf-240">
          <mxGeometry relative="1" as="geometry" />
        </mxCell>
        <mxCell id="bM8eNRjOvd8zT3DbbcMf-233" value="" style="ellipse;html=1;" vertex="1" parent="1">
          <mxGeometry x="795" y="520" width="10" height="10" as="geometry" />
        </mxCell>
        <mxCell id="bM8eNRjOvd8zT3DbbcMf-234" value="分支提交记录n" style="text;html=1;align=center;verticalAlign=middle;resizable=0;points=[];autosize=1;strokeColor=none;fillColor=none;" vertex="1" parent="1">
          <mxGeometry x="805" y="510" width="100" height="30" as="geometry" />
        </mxCell>
        <mxCell id="bM8eNRjOvd8zT3DbbcMf-235" style="edgeStyle=orthogonalEdgeStyle;rounded=0;orthogonalLoop=1;jettySize=auto;html=1;entryX=0.5;entryY=0;entryDx=0;entryDy=0;" edge="1" parent="1" source="bM8eNRjOvd8zT3DbbcMf-238" target="bM8eNRjOvd8zT3DbbcMf-243">
          <mxGeometry relative="1" as="geometry" />
        </mxCell>
        <mxCell id="bM8eNRjOvd8zT3DbbcMf-236" style="endArrow=open;startArrow=none;endFill=0;startFill=0;endSize=8;html=1;verticalAlign=bottom;labelBackgroundColor=none;strokeWidth=1;rounded=1;jumpStyle=arc;" edge="1" parent="1" source="bM8eNRjOvd8zT3DbbcMf-238" target="bM8eNRjOvd8zT3DbbcMf-260">
          <mxGeometry relative="1" as="geometry">
            <mxPoint x="910" y="610" as="targetPoint" />
            <Array as="points">
              <mxPoint x="410" y="560" />
            </Array>
          </mxGeometry>
        </mxCell>
        <mxCell id="bM8eNRjOvd8zT3DbbcMf-237" value="合并dev分支" style="edgeLabel;html=1;align=center;verticalAlign=middle;resizable=0;points=[];" vertex="1" connectable="0" parent="bM8eNRjOvd8zT3DbbcMf-236">
          <mxGeometry x="-0.4995" relative="1" as="geometry">
            <mxPoint as="offset" />
          </mxGeometry>
        </mxCell>
        <mxCell id="bM8eNRjOvd8zT3DbbcMf-238" value="" style="ellipse;html=1;" vertex="1" parent="1">
          <mxGeometry x="400" y="520" width="10" height="10" as="geometry" />
        </mxCell>
        <mxCell id="bM8eNRjOvd8zT3DbbcMf-239" style="edgeStyle=orthogonalEdgeStyle;rounded=0;orthogonalLoop=1;jettySize=auto;html=1;" edge="1" parent="1" source="bM8eNRjOvd8zT3DbbcMf-240" target="bM8eNRjOvd8zT3DbbcMf-245">
          <mxGeometry relative="1" as="geometry" />
        </mxCell>
        <mxCell id="bM8eNRjOvd8zT3DbbcMf-240" value="" style="ellipse;html=1;" vertex="1" parent="1">
          <mxGeometry x="795" y="595" width="10" height="10" as="geometry" />
        </mxCell>
        <mxCell id="bM8eNRjOvd8zT3DbbcMf-241" value="分支bugfix提交1" style="text;html=1;align=center;verticalAlign=middle;resizable=0;points=[];autosize=1;strokeColor=none;fillColor=none;" vertex="1" parent="1">
          <mxGeometry x="810" y="585" width="110" height="30" as="geometry" />
        </mxCell>
        <mxCell id="bM8eNRjOvd8zT3DbbcMf-242" style="edgeStyle=orthogonalEdgeStyle;rounded=0;orthogonalLoop=1;jettySize=auto;html=1;entryX=0.5;entryY=0;entryDx=0;entryDy=0;" edge="1" parent="1" source="bM8eNRjOvd8zT3DbbcMf-243" target="bM8eNRjOvd8zT3DbbcMf-251">
          <mxGeometry relative="1" as="geometry">
            <mxPoint x="405" y="690" as="targetPoint" />
          </mxGeometry>
        </mxCell>
        <mxCell id="bM8eNRjOvd8zT3DbbcMf-243" value="" style="ellipse;html=1;" vertex="1" parent="1">
          <mxGeometry x="400" y="620" width="10" height="10" as="geometry" />
        </mxCell>
        <mxCell id="bM8eNRjOvd8zT3DbbcMf-244" style="edgeStyle=orthogonalEdgeStyle;rounded=0;orthogonalLoop=1;jettySize=auto;html=1;" edge="1" parent="1" source="bM8eNRjOvd8zT3DbbcMf-245" target="bM8eNRjOvd8zT3DbbcMf-249">
          <mxGeometry relative="1" as="geometry" />
        </mxCell>
        <mxCell id="bM8eNRjOvd8zT3DbbcMf-245" value="" style="ellipse;html=1;dashed=1;" vertex="1" parent="1">
          <mxGeometry x="795" y="650" width="10" height="10" as="geometry" />
        </mxCell>
        <mxCell id="bM8eNRjOvd8zT3DbbcMf-246" value="分支bugfix提交n" style="text;html=1;align=center;verticalAlign=middle;resizable=0;points=[];autosize=1;strokeColor=none;fillColor=none;" vertex="1" parent="1">
          <mxGeometry x="800" y="680" width="110" height="30" as="geometry" />
        </mxCell>
        <mxCell id="bM8eNRjOvd8zT3DbbcMf-247" style="endArrow=open;startArrow=none;endFill=0;startFill=0;endSize=8;html=1;verticalAlign=bottom;labelBackgroundColor=none;strokeWidth=1;rounded=1;jumpStyle=arc;" edge="1" parent="1" source="bM8eNRjOvd8zT3DbbcMf-249" target="bM8eNRjOvd8zT3DbbcMf-251">
          <mxGeometry relative="1" as="geometry">
            <mxPoint x="318" y="710" as="targetPoint" />
            <mxPoint x="338.0000000000002" y="705" as="sourcePoint" />
            <Array as="points">
              <mxPoint x="479" y="700" />
              <mxPoint x="479" y="705" />
            </Array>
          </mxGeometry>
        </mxCell>
        <mxCell id="bM8eNRjOvd8zT3DbbcMf-248" value="合并分支feature-1的bugfixn，继续集成测试" style="edgeLabel;html=1;align=center;verticalAlign=middle;resizable=0;points=[];" vertex="1" connectable="0" parent="bM8eNRjOvd8zT3DbbcMf-247">
          <mxGeometry x="-0.4443" relative="1" as="geometry">
            <mxPoint x="-116" as="offset" />
          </mxGeometry>
        </mxCell>
        <mxCell id="bM8eNRjOvd8zT3DbbcMf-249" value="" style="ellipse;html=1;" vertex="1" parent="1">
          <mxGeometry x="795" y="690" width="10" height="10" as="geometry" />
        </mxCell>
        <mxCell id="bM8eNRjOvd8zT3DbbcMf-250" style="edgeStyle=orthogonalEdgeStyle;rounded=0;orthogonalLoop=1;jettySize=auto;html=1;" edge="1" parent="1" source="bM8eNRjOvd8zT3DbbcMf-251" target="bM8eNRjOvd8zT3DbbcMf-253">
          <mxGeometry relative="1" as="geometry">
            <mxPoint x="389.0000000000002" y="760" as="targetPoint" />
            <Array as="points">
              <mxPoint x="405" y="750" />
              <mxPoint x="405" y="750" />
            </Array>
          </mxGeometry>
        </mxCell>
        <mxCell id="bM8eNRjOvd8zT3DbbcMf-251" value="" style="ellipse;html=1;" vertex="1" parent="1">
          <mxGeometry x="400" y="700" width="10" height="10" as="geometry" />
        </mxCell>
        <mxCell id="bM8eNRjOvd8zT3DbbcMf-252" style="edgeStyle=orthogonalEdgeStyle;rounded=0;orthogonalLoop=1;jettySize=auto;html=1;" edge="1" parent="1" source="bM8eNRjOvd8zT3DbbcMf-253" target="bM8eNRjOvd8zT3DbbcMf-271">
          <mxGeometry relative="1" as="geometry">
            <mxPoint x="389.0000000000002" y="800" as="sourcePoint" />
            <Array as="points" />
          </mxGeometry>
        </mxCell>
        <mxCell id="bM8eNRjOvd8zT3DbbcMf-253" value="分支feature-1相关功能测试完成" style="html=1;align=center;verticalAlign=top;rounded=1;absoluteArcSize=1;arcSize=10;dashed=0;whiteSpace=wrap;" vertex="1" parent="1">
          <mxGeometry x="335" y="760" width="140" height="40" as="geometry" />
        </mxCell>
        <mxCell id="bM8eNRjOvd8zT3DbbcMf-254" style="edgeStyle=orthogonalEdgeStyle;rounded=0;orthogonalLoop=1;jettySize=auto;html=1;" edge="1" parent="1" source="bM8eNRjOvd8zT3DbbcMf-255" target="bM8eNRjOvd8zT3DbbcMf-258">
          <mxGeometry relative="1" as="geometry" />
        </mxCell>
        <mxCell id="bM8eNRjOvd8zT3DbbcMf-255" value="" style="ellipse;html=1;" vertex="1" parent="1">
          <mxGeometry x="1065" y="410" width="10" height="10" as="geometry" />
        </mxCell>
        <mxCell id="bM8eNRjOvd8zT3DbbcMf-256" value="分支提交记录1" style="text;html=1;align=center;verticalAlign=middle;resizable=0;points=[];autosize=1;strokeColor=none;fillColor=none;" vertex="1" parent="1">
          <mxGeometry x="1085" y="400" width="100" height="30" as="geometry" />
        </mxCell>
        <mxCell id="bM8eNRjOvd8zT3DbbcMf-257" style="edgeStyle=orthogonalEdgeStyle;rounded=0;orthogonalLoop=1;jettySize=auto;html=1;" edge="1" parent="1" source="bM8eNRjOvd8zT3DbbcMf-258" target="bM8eNRjOvd8zT3DbbcMf-260">
          <mxGeometry relative="1" as="geometry" />
        </mxCell>
        <mxCell id="bM8eNRjOvd8zT3DbbcMf-258" value="" style="ellipse;html=1;dashed=1;" vertex="1" parent="1">
          <mxGeometry x="1065" y="480" width="10" height="10" as="geometry" />
        </mxCell>
        <mxCell id="bM8eNRjOvd8zT3DbbcMf-259" style="edgeStyle=orthogonalEdgeStyle;rounded=0;orthogonalLoop=1;jettySize=auto;html=1;" edge="1" parent="1" source="bM8eNRjOvd8zT3DbbcMf-260" target="bM8eNRjOvd8zT3DbbcMf-263">
          <mxGeometry relative="1" as="geometry" />
        </mxCell>
        <mxCell id="bM8eNRjOvd8zT3DbbcMf-260" value="" style="ellipse;html=1;" vertex="1" parent="1">
          <mxGeometry x="1065" y="554" width="10" height="10" as="geometry" />
        </mxCell>
        <mxCell id="bM8eNRjOvd8zT3DbbcMf-261" value="分支提交记录n" style="text;html=1;align=center;verticalAlign=middle;resizable=0;points=[];autosize=1;strokeColor=none;fillColor=none;" vertex="1" parent="1">
          <mxGeometry x="1075" y="710" width="100" height="30" as="geometry" />
        </mxCell>
        <mxCell id="bM8eNRjOvd8zT3DbbcMf-262" style="edgeStyle=orthogonalEdgeStyle;rounded=0;orthogonalLoop=1;jettySize=auto;html=1;" edge="1" parent="1" source="bM8eNRjOvd8zT3DbbcMf-263" target="bM8eNRjOvd8zT3DbbcMf-265">
          <mxGeometry relative="1" as="geometry" />
        </mxCell>
        <mxCell id="bM8eNRjOvd8zT3DbbcMf-263" value="" style="ellipse;html=1;" vertex="1" parent="1">
          <mxGeometry x="1065" y="725" width="10" height="10" as="geometry" />
        </mxCell>
        <mxCell id="bM8eNRjOvd8zT3DbbcMf-264" style="edgeStyle=orthogonalEdgeStyle;rounded=0;orthogonalLoop=1;jettySize=auto;html=1;" edge="1" parent="1" source="bM8eNRjOvd8zT3DbbcMf-265" target="bM8eNRjOvd8zT3DbbcMf-269">
          <mxGeometry relative="1" as="geometry" />
        </mxCell>
        <mxCell id="bM8eNRjOvd8zT3DbbcMf-265" value="" style="ellipse;html=1;dashed=1;" vertex="1" parent="1">
          <mxGeometry x="1065" y="860" width="10" height="10" as="geometry" />
        </mxCell>
        <mxCell id="bM8eNRjOvd8zT3DbbcMf-266" value="分支bugfix提交n" style="text;html=1;align=center;verticalAlign=middle;resizable=0;points=[];autosize=1;strokeColor=none;fillColor=none;" vertex="1" parent="1">
          <mxGeometry x="1075" y="930" width="110" height="30" as="geometry" />
        </mxCell>
        <mxCell id="bM8eNRjOvd8zT3DbbcMf-267" style="endArrow=open;startArrow=none;endFill=0;startFill=0;endSize=8;html=1;verticalAlign=bottom;labelBackgroundColor=none;strokeWidth=1;jumpStyle=arc;rounded=1;" edge="1" parent="1" source="bM8eNRjOvd8zT3DbbcMf-269" target="bM8eNRjOvd8zT3DbbcMf-322">
          <mxGeometry relative="1" as="geometry">
            <mxPoint x="250" y="1320" as="targetPoint" />
            <Array as="points">
              <mxPoint x="1070" y="1190" />
            </Array>
          </mxGeometry>
        </mxCell>
        <mxCell id="bM8eNRjOvd8zT3DbbcMf-268" value="feature-2相关功能发布到产品（squash and merge）" style="edgeLabel;html=1;align=center;verticalAlign=middle;resizable=0;points=[];" vertex="1" connectable="0" parent="bM8eNRjOvd8zT3DbbcMf-267">
          <mxGeometry x="0.2125" y="-1" relative="1" as="geometry">
            <mxPoint x="25" y="-4" as="offset" />
          </mxGeometry>
        </mxCell>
        <mxCell id="bM8eNRjOvd8zT3DbbcMf-269" value="" style="ellipse;html=1;" vertex="1" parent="1">
          <mxGeometry x="1065" y="940" width="10" height="10" as="geometry" />
        </mxCell>
        <mxCell id="bM8eNRjOvd8zT3DbbcMf-270" style="edgeStyle=orthogonalEdgeStyle;rounded=0;orthogonalLoop=1;jettySize=auto;html=1;" edge="1" parent="1" source="bM8eNRjOvd8zT3DbbcMf-271" target="bM8eNRjOvd8zT3DbbcMf-278">
          <mxGeometry relative="1" as="geometry" />
        </mxCell>
        <mxCell id="bM8eNRjOvd8zT3DbbcMf-271" value="" style="ellipse;html=1;" vertex="1" parent="1">
          <mxGeometry x="399" y="940" width="10" height="10" as="geometry" />
        </mxCell>
        <mxCell id="bM8eNRjOvd8zT3DbbcMf-272" value="" style="endArrow=open;startArrow=none;endFill=0;startFill=0;endSize=8;html=1;verticalAlign=bottom;labelBackgroundColor=none;strokeWidth=1;rounded=1;" edge="1" parent="1" source="bM8eNRjOvd8zT3DbbcMf-240" target="bM8eNRjOvd8zT3DbbcMf-243">
          <mxGeometry relative="1" as="geometry">
            <mxPoint x="560" y="625" as="targetPoint" />
            <mxPoint x="670" y="600" as="sourcePoint" />
            <Array as="points">
              <mxPoint x="630" y="600" />
              <mxPoint x="630" y="625" />
            </Array>
          </mxGeometry>
        </mxCell>
        <mxCell id="bM8eNRjOvd8zT3DbbcMf-273" value="合并分支feature-1的bugfix1，继续集成测试" style="edgeLabel;html=1;align=center;verticalAlign=middle;resizable=0;points=[];" vertex="1" connectable="0" parent="bM8eNRjOvd8zT3DbbcMf-272">
          <mxGeometry x="0.6547" relative="1" as="geometry">
            <mxPoint x="109" y="-10" as="offset" />
          </mxGeometry>
        </mxCell>
        <mxCell id="bM8eNRjOvd8zT3DbbcMf-274" style="edgeStyle=orthogonalEdgeStyle;rounded=0;orthogonalLoop=1;jettySize=auto;html=1;" edge="1" parent="1" source="bM8eNRjOvd8zT3DbbcMf-322" target="bM8eNRjOvd8zT3DbbcMf-283">
          <mxGeometry relative="1" as="geometry">
            <mxPoint x="250" y="1230" as="sourcePoint" />
          </mxGeometry>
        </mxCell>
        <mxCell id="bM8eNRjOvd8zT3DbbcMf-275" style="edgeStyle=orthogonalEdgeStyle;rounded=0;orthogonalLoop=1;jettySize=auto;html=1;" edge="1" parent="1" source="bM8eNRjOvd8zT3DbbcMf-276" target="bM8eNRjOvd8zT3DbbcMf-322">
          <mxGeometry relative="1" as="geometry" />
        </mxCell>
        <mxCell id="bM8eNRjOvd8zT3DbbcMf-276" value="" style="ellipse;html=1;" vertex="1" parent="1">
          <mxGeometry x="245" y="1190" width="10" height="10" as="geometry" />
        </mxCell>
        <mxCell id="bM8eNRjOvd8zT3DbbcMf-277" style="edgeStyle=orthogonalEdgeStyle;rounded=0;orthogonalLoop=1;jettySize=auto;html=1;entryX=0.5;entryY=0;entryDx=0;entryDy=0;" edge="1" parent="1" source="bM8eNRjOvd8zT3DbbcMf-278" target="bM8eNRjOvd8zT3DbbcMf-281">
          <mxGeometry relative="1" as="geometry" />
        </mxCell>
        <mxCell id="bM8eNRjOvd8zT3DbbcMf-278" value="" style="ellipse;html=1;" vertex="1" parent="1">
          <mxGeometry x="399" y="1035" width="10" height="10" as="geometry" />
        </mxCell>
        <mxCell id="bM8eNRjOvd8zT3DbbcMf-279" style="endArrow=open;startArrow=none;endFill=0;startFill=0;endSize=8;html=1;verticalAlign=bottom;labelBackgroundColor=none;strokeWidth=1;rounded=1;" edge="1" parent="1" source="bM8eNRjOvd8zT3DbbcMf-249" target="bM8eNRjOvd8zT3DbbcMf-276">
          <mxGeometry relative="1" as="geometry">
            <mxPoint x="320" y="1190" as="targetPoint" />
            <mxPoint x="710" y="1130" as="sourcePoint" />
            <Array as="points">
              <mxPoint x="800" y="1120" />
            </Array>
          </mxGeometry>
        </mxCell>
        <mxCell id="bM8eNRjOvd8zT3DbbcMf-280" value="feature-1相关功能发布到产品（squash and merge）" style="edgeLabel;html=1;align=center;verticalAlign=middle;resizable=0;points=[];" vertex="1" connectable="0" parent="bM8eNRjOvd8zT3DbbcMf-279">
          <mxGeometry x="0.158" relative="1" as="geometry">
            <mxPoint x="82" y="-7" as="offset" />
          </mxGeometry>
        </mxCell>
        <mxCell id="bM8eNRjOvd8zT3DbbcMf-281" value="分支feature-1相关功能测试完成" style="html=1;align=center;verticalAlign=top;rounded=1;absoluteArcSize=1;arcSize=10;dashed=0;whiteSpace=wrap;" vertex="1" parent="1">
          <mxGeometry x="334" y="1090" width="140" height="40" as="geometry" />
        </mxCell>
        <mxCell id="bM8eNRjOvd8zT3DbbcMf-282" style="edgeStyle=orthogonalEdgeStyle;rounded=0;orthogonalLoop=1;jettySize=auto;html=1;" edge="1" parent="1" source="bM8eNRjOvd8zT3DbbcMf-283" target="bM8eNRjOvd8zT3DbbcMf-287">
          <mxGeometry relative="1" as="geometry" />
        </mxCell>
        <mxCell id="bM8eNRjOvd8zT3DbbcMf-283" value="打上产品发布标签（release tag）" style="html=1;align=center;verticalAlign=top;rounded=1;absoluteArcSize=1;arcSize=10;dashed=0;whiteSpace=wrap;" vertex="1" parent="1">
          <mxGeometry x="180" y="1390" width="140" height="40" as="geometry" />
        </mxCell>
        <mxCell id="bM8eNRjOvd8zT3DbbcMf-284" style="edgeStyle=orthogonalEdgeStyle;rounded=0;orthogonalLoop=1;jettySize=auto;html=1;" edge="1" parent="1" source="bM8eNRjOvd8zT3DbbcMf-285" target="bM8eNRjOvd8zT3DbbcMf-289">
          <mxGeometry relative="1" as="geometry">
            <mxPoint x="250" y="1710" as="targetPoint" />
          </mxGeometry>
        </mxCell>
        <mxCell id="bM8eNRjOvd8zT3DbbcMf-285" value="产品发布验证完成" style="html=1;align=center;verticalAlign=top;rounded=1;absoluteArcSize=1;arcSize=10;dashed=0;whiteSpace=wrap;" vertex="1" parent="1">
          <mxGeometry x="180" y="1540" width="140" height="40" as="geometry" />
        </mxCell>
        <mxCell id="bM8eNRjOvd8zT3DbbcMf-286" style="edgeStyle=orthogonalEdgeStyle;rounded=0;orthogonalLoop=1;jettySize=auto;html=1;entryX=0.5;entryY=0;entryDx=0;entryDy=0;" edge="1" parent="1" source="bM8eNRjOvd8zT3DbbcMf-287" target="bM8eNRjOvd8zT3DbbcMf-285">
          <mxGeometry relative="1" as="geometry" />
        </mxCell>
        <mxCell id="bM8eNRjOvd8zT3DbbcMf-287" value="触发强制重置(force reset) dev分支到最新main分支" style="html=1;align=center;verticalAlign=top;rounded=1;absoluteArcSize=1;arcSize=10;dashed=0;whiteSpace=wrap;" vertex="1" parent="1">
          <mxGeometry x="180" y="1470" width="140" height="40" as="geometry" />
        </mxCell>
        <mxCell id="bM8eNRjOvd8zT3DbbcMf-288" style="edgeStyle=orthogonalEdgeStyle;rounded=0;orthogonalLoop=1;jettySize=auto;html=1;" edge="1" parent="1" source="bM8eNRjOvd8zT3DbbcMf-289" target="bM8eNRjOvd8zT3DbbcMf-324">
          <mxGeometry relative="1" as="geometry" />
        </mxCell>
        <mxCell id="bM8eNRjOvd8zT3DbbcMf-289" value="" style="ellipse;html=1;" vertex="1" parent="1">
          <mxGeometry x="245" y="1780" width="10" height="10" as="geometry" />
        </mxCell>
        <mxCell id="bM8eNRjOvd8zT3DbbcMf-290" style="edgeStyle=orthogonalEdgeStyle;rounded=0;orthogonalLoop=1;jettySize=auto;html=1;" edge="1" parent="1" source="bM8eNRjOvd8zT3DbbcMf-291" target="bM8eNRjOvd8zT3DbbcMf-304">
          <mxGeometry relative="1" as="geometry" />
        </mxCell>
        <mxCell id="bM8eNRjOvd8zT3DbbcMf-291" value="" style="ellipse;html=1;" vertex="1" parent="1">
          <mxGeometry x="440" y="1360" width="10" height="10" as="geometry" />
        </mxCell>
        <mxCell id="bM8eNRjOvd8zT3DbbcMf-292" value="" style="endArrow=open;startArrow=none;endFill=0;startFill=0;endSize=8;html=1;verticalAlign=bottom;labelBackgroundColor=none;strokeWidth=1;rounded=0;" edge="1" parent="1" source="bM8eNRjOvd8zT3DbbcMf-322" target="bM8eNRjOvd8zT3DbbcMf-291">
          <mxGeometry width="160" relative="1" as="geometry">
            <mxPoint x="270" y="1330" as="sourcePoint" />
            <mxPoint x="330" y="1270" as="targetPoint" />
          </mxGeometry>
        </mxCell>
        <mxCell id="bM8eNRjOvd8zT3DbbcMf-293" value="dev分支重置到master" style="edgeLabel;html=1;align=center;verticalAlign=middle;resizable=0;points=[];" vertex="1" connectable="0" parent="bM8eNRjOvd8zT3DbbcMf-292">
          <mxGeometry x="0.3742" relative="1" as="geometry">
            <mxPoint x="16" y="8" as="offset" />
          </mxGeometry>
        </mxCell>
        <mxCell id="bM8eNRjOvd8zT3DbbcMf-294" style="edgeStyle=orthogonalEdgeStyle;rounded=0;orthogonalLoop=1;jettySize=auto;html=1;" edge="1" parent="1" source="bM8eNRjOvd8zT3DbbcMf-295" target="bM8eNRjOvd8zT3DbbcMf-299">
          <mxGeometry relative="1" as="geometry">
            <mxPoint x="735" y="1399.9999999999998" as="targetPoint" />
          </mxGeometry>
        </mxCell>
        <mxCell id="bM8eNRjOvd8zT3DbbcMf-295" value="" style="ellipse;html=1;" vertex="1" parent="1">
          <mxGeometry x="730" y="1360" width="10" height="10" as="geometry" />
        </mxCell>
        <mxCell id="bM8eNRjOvd8zT3DbbcMf-296" value="" style="endArrow=open;startArrow=none;endFill=0;startFill=0;endSize=8;html=1;verticalAlign=bottom;labelBackgroundColor=none;strokeWidth=1;rounded=0;" edge="1" parent="1" source="bM8eNRjOvd8zT3DbbcMf-322" target="bM8eNRjOvd8zT3DbbcMf-295">
          <mxGeometry width="160" relative="1" as="geometry">
            <mxPoint x="260" y="1320" as="sourcePoint" />
            <mxPoint x="515" y="1285" as="targetPoint" />
          </mxGeometry>
        </mxCell>
        <mxCell id="bM8eNRjOvd8zT3DbbcMf-297" value="临时修复分支hotfix0从最近的产品发布标签切出" style="edgeLabel;html=1;align=center;verticalAlign=middle;resizable=0;points=[];" vertex="1" connectable="0" parent="bM8eNRjOvd8zT3DbbcMf-296">
          <mxGeometry x="0.3742" relative="1" as="geometry">
            <mxPoint x="-35" y="2" as="offset" />
          </mxGeometry>
        </mxCell>
        <mxCell id="bM8eNRjOvd8zT3DbbcMf-298" style="edgeStyle=orthogonalEdgeStyle;rounded=0;orthogonalLoop=1;jettySize=auto;html=1;" edge="1" parent="1" source="bM8eNRjOvd8zT3DbbcMf-299" target="bM8eNRjOvd8zT3DbbcMf-301">
          <mxGeometry relative="1" as="geometry" />
        </mxCell>
        <mxCell id="bM8eNRjOvd8zT3DbbcMf-299" value="" style="ellipse;html=1;dashed=1;" vertex="1" parent="1">
          <mxGeometry x="730" y="1420" width="10" height="10" as="geometry" />
        </mxCell>
        <mxCell id="bM8eNRjOvd8zT3DbbcMf-300" style="edgeStyle=orthogonalEdgeStyle;rounded=0;orthogonalLoop=1;jettySize=auto;html=1;" edge="1" parent="1" source="bM8eNRjOvd8zT3DbbcMf-301" target="bM8eNRjOvd8zT3DbbcMf-312">
          <mxGeometry relative="1" as="geometry" />
        </mxCell>
        <mxCell id="bM8eNRjOvd8zT3DbbcMf-301" value="" style="ellipse;html=1;" vertex="1" parent="1">
          <mxGeometry x="730" y="1460" width="10" height="10" as="geometry" />
        </mxCell>
        <mxCell id="bM8eNRjOvd8zT3DbbcMf-302" value="分支hotfix0第n次提交" style="text;html=1;align=center;verticalAlign=middle;resizable=0;points=[];autosize=1;strokeColor=none;fillColor=none;" vertex="1" parent="1">
          <mxGeometry x="720" y="1410" width="140" height="30" as="geometry" />
        </mxCell>
        <mxCell id="bM8eNRjOvd8zT3DbbcMf-303" style="edgeStyle=orthogonalEdgeStyle;rounded=0;orthogonalLoop=1;jettySize=auto;html=1;" edge="1" parent="1" source="bM8eNRjOvd8zT3DbbcMf-304" target="bM8eNRjOvd8zT3DbbcMf-318">
          <mxGeometry relative="1" as="geometry" />
        </mxCell>
        <mxCell id="bM8eNRjOvd8zT3DbbcMf-304" value="" style="ellipse;html=1;" vertex="1" parent="1">
          <mxGeometry x="440" y="1485" width="10" height="10" as="geometry" />
        </mxCell>
        <mxCell id="bM8eNRjOvd8zT3DbbcMf-305" value="" style="endArrow=open;startArrow=none;endFill=0;startFill=0;endSize=8;html=1;verticalAlign=bottom;labelBackgroundColor=none;strokeWidth=1;rounded=0;" edge="1" parent="1" source="bM8eNRjOvd8zT3DbbcMf-301" target="bM8eNRjOvd8zT3DbbcMf-304">
          <mxGeometry width="160" relative="1" as="geometry">
            <mxPoint x="474" y="1410" as="sourcePoint" />
            <mxPoint x="661" y="1508" as="targetPoint" />
          </mxGeometry>
        </mxCell>
        <mxCell id="bM8eNRjOvd8zT3DbbcMf-306" value="hotfix0分支合到dev进行集成测试" style="edgeLabel;html=1;align=center;verticalAlign=middle;resizable=0;points=[];" vertex="1" connectable="0" parent="bM8eNRjOvd8zT3DbbcMf-305">
          <mxGeometry x="0.3742" relative="1" as="geometry">
            <mxPoint x="65" y="-5" as="offset" />
          </mxGeometry>
        </mxCell>
        <mxCell id="bM8eNRjOvd8zT3DbbcMf-307" value="" style="endArrow=open;startArrow=none;endFill=0;startFill=0;endSize=8;html=1;verticalAlign=bottom;labelBackgroundColor=none;strokeWidth=1;rounded=1;jumpStyle=arc;" edge="1" parent="1" source="bM8eNRjOvd8zT3DbbcMf-269" target="bM8eNRjOvd8zT3DbbcMf-278">
          <mxGeometry width="160" relative="1" as="geometry">
            <mxPoint x="1050" y="950" as="sourcePoint" />
            <mxPoint x="440" y="1040" as="targetPoint" />
          </mxGeometry>
        </mxCell>
        <mxCell id="bM8eNRjOvd8zT3DbbcMf-308" value="合并分支feature-2的bugfixn，继续集成测试" style="edgeLabel;html=1;align=center;verticalAlign=middle;resizable=0;points=[];" vertex="1" connectable="0" parent="bM8eNRjOvd8zT3DbbcMf-307">
          <mxGeometry x="0.3742" relative="1" as="geometry">
            <mxPoint x="36" as="offset" />
          </mxGeometry>
        </mxCell>
        <mxCell id="bM8eNRjOvd8zT3DbbcMf-309" value="" style="endArrow=open;startArrow=none;endFill=0;startFill=0;endSize=8;html=1;verticalAlign=bottom;labelBackgroundColor=none;strokeWidth=1;rounded=1;jumpStyle=arc;" edge="1" parent="1" source="bM8eNRjOvd8zT3DbbcMf-263" target="bM8eNRjOvd8zT3DbbcMf-271">
          <mxGeometry width="160" relative="1" as="geometry">
            <mxPoint x="1075" y="880" as="sourcePoint" />
            <mxPoint x="419" y="973" as="targetPoint" />
          </mxGeometry>
        </mxCell>
        <mxCell id="bM8eNRjOvd8zT3DbbcMf-310" value="合并分支feature-2，进行集成测试" style="edgeLabel;html=1;align=center;verticalAlign=middle;resizable=0;points=[];" vertex="1" connectable="0" parent="bM8eNRjOvd8zT3DbbcMf-309">
          <mxGeometry x="0.3742" relative="1" as="geometry">
            <mxPoint x="36" as="offset" />
          </mxGeometry>
        </mxCell>
        <mxCell id="bM8eNRjOvd8zT3DbbcMf-311" style="edgeStyle=orthogonalEdgeStyle;rounded=0;orthogonalLoop=1;jettySize=auto;html=1;" edge="1" parent="1" source="bM8eNRjOvd8zT3DbbcMf-312" target="bM8eNRjOvd8zT3DbbcMf-316">
          <mxGeometry relative="1" as="geometry" />
        </mxCell>
        <mxCell id="bM8eNRjOvd8zT3DbbcMf-312" value="" style="ellipse;html=1;dashed=1;" vertex="1" parent="1">
          <mxGeometry x="730" y="1520" width="10" height="10" as="geometry" />
        </mxCell>
        <mxCell id="bM8eNRjOvd8zT3DbbcMf-313" value="分支bugfix提交n" style="text;html=1;align=center;verticalAlign=middle;resizable=0;points=[];autosize=1;strokeColor=none;fillColor=none;" vertex="1" parent="1">
          <mxGeometry x="740" y="1570" width="110" height="30" as="geometry" />
        </mxCell>
        <mxCell id="bM8eNRjOvd8zT3DbbcMf-314" style="endArrow=open;startArrow=none;endFill=0;startFill=0;endSize=8;html=1;verticalAlign=bottom;labelBackgroundColor=none;strokeWidth=1;rounded=0;" edge="1" parent="1" source="bM8eNRjOvd8zT3DbbcMf-316" target="bM8eNRjOvd8zT3DbbcMf-318">
          <mxGeometry relative="1" as="geometry" />
        </mxCell>
        <mxCell id="bM8eNRjOvd8zT3DbbcMf-315" value="hotfix0分支合到dev,继续集成测试" style="edgeLabel;html=1;align=center;verticalAlign=middle;resizable=0;points=[];" vertex="1" connectable="0" parent="bM8eNRjOvd8zT3DbbcMf-314">
          <mxGeometry x="0.1717" relative="1" as="geometry">
            <mxPoint as="offset" />
          </mxGeometry>
        </mxCell>
        <mxCell id="bM8eNRjOvd8zT3DbbcMf-316" value="" style="ellipse;html=1;" vertex="1" parent="1">
          <mxGeometry x="730" y="1580" width="10" height="10" as="geometry" />
        </mxCell>
        <mxCell id="bM8eNRjOvd8zT3DbbcMf-317" style="edgeStyle=orthogonalEdgeStyle;rounded=0;orthogonalLoop=1;jettySize=auto;html=1;" edge="1" parent="1" source="bM8eNRjOvd8zT3DbbcMf-318" target="bM8eNRjOvd8zT3DbbcMf-321">
          <mxGeometry relative="1" as="geometry" />
        </mxCell>
        <mxCell id="bM8eNRjOvd8zT3DbbcMf-318" value="" style="ellipse;html=1;" vertex="1" parent="1">
          <mxGeometry x="440" y="1610" width="10" height="10" as="geometry" />
        </mxCell>
        <mxCell id="bM8eNRjOvd8zT3DbbcMf-319" style="endArrow=open;startArrow=none;endFill=0;startFill=0;endSize=8;html=1;verticalAlign=bottom;labelBackgroundColor=none;strokeWidth=1;rounded=1;" edge="1" parent="1" source="bM8eNRjOvd8zT3DbbcMf-321" target="bM8eNRjOvd8zT3DbbcMf-289">
          <mxGeometry relative="1" as="geometry">
            <Array as="points">
              <mxPoint x="445" y="1715" />
            </Array>
          </mxGeometry>
        </mxCell>
        <mxCell id="bM8eNRjOvd8zT3DbbcMf-320" value="发布hotfix0到产品" style="edgeLabel;html=1;align=center;verticalAlign=middle;resizable=0;points=[];" vertex="1" connectable="0" parent="bM8eNRjOvd8zT3DbbcMf-319">
          <mxGeometry x="-0.0222" relative="1" as="geometry">
            <mxPoint x="35" as="offset" />
          </mxGeometry>
        </mxCell>
        <mxCell id="bM8eNRjOvd8zT3DbbcMf-321" value="分支hotfix0相关功能测试完成" style="html=1;align=center;verticalAlign=top;rounded=1;absoluteArcSize=1;arcSize=10;dashed=0;whiteSpace=wrap;" vertex="1" parent="1">
          <mxGeometry x="375" y="1660" width="140" height="40" as="geometry" />
        </mxCell>
        <mxCell id="bM8eNRjOvd8zT3DbbcMf-322" value="" style="ellipse;html=1;" vertex="1" parent="1">
          <mxGeometry x="245" y="1320" width="10" height="10" as="geometry" />
        </mxCell>
        <mxCell id="bM8eNRjOvd8zT3DbbcMf-323" style="edgeStyle=orthogonalEdgeStyle;rounded=0;orthogonalLoop=1;jettySize=auto;html=1;" edge="1" parent="1" source="bM8eNRjOvd8zT3DbbcMf-324" target="bM8eNRjOvd8zT3DbbcMf-327">
          <mxGeometry relative="1" as="geometry" />
        </mxCell>
        <mxCell id="bM8eNRjOvd8zT3DbbcMf-324" value="" style="ellipse;html=1;" vertex="1" parent="1">
          <mxGeometry x="245" y="1840" width="10" height="10" as="geometry" />
        </mxCell>
        <mxCell id="bM8eNRjOvd8zT3DbbcMf-325" value="回退feature-1相关的功能（rever commit）" style="text;html=1;align=center;verticalAlign=middle;resizable=0;points=[];autosize=1;strokeColor=none;fillColor=none;" vertex="1" parent="1">
          <mxGeometry x="255" y="1830" width="250" height="30" as="geometry" />
        </mxCell>
        <mxCell id="bM8eNRjOvd8zT3DbbcMf-326" style="edgeStyle=orthogonalEdgeStyle;rounded=0;orthogonalLoop=1;jettySize=auto;html=1;" edge="1" parent="1" source="bM8eNRjOvd8zT3DbbcMf-327" target="bM8eNRjOvd8zT3DbbcMf-330">
          <mxGeometry relative="1" as="geometry" />
        </mxCell>
        <mxCell id="bM8eNRjOvd8zT3DbbcMf-327" value="打上产品发布标签（release tag）" style="html=1;align=center;verticalAlign=top;rounded=1;absoluteArcSize=1;arcSize=10;dashed=0;whiteSpace=wrap;" vertex="1" parent="1">
          <mxGeometry x="180" y="1890" width="140" height="40" as="geometry" />
        </mxCell>
        <mxCell id="bM8eNRjOvd8zT3DbbcMf-328" value="产品发布验证完成" style="html=1;align=center;verticalAlign=top;rounded=1;absoluteArcSize=1;arcSize=10;dashed=0;whiteSpace=wrap;" vertex="1" parent="1">
          <mxGeometry x="180" y="2040" width="140" height="40" as="geometry" />
        </mxCell>
        <mxCell id="bM8eNRjOvd8zT3DbbcMf-329" style="edgeStyle=orthogonalEdgeStyle;rounded=0;orthogonalLoop=1;jettySize=auto;html=1;entryX=0.5;entryY=0;entryDx=0;entryDy=0;" edge="1" parent="1" source="bM8eNRjOvd8zT3DbbcMf-330" target="bM8eNRjOvd8zT3DbbcMf-328">
          <mxGeometry relative="1" as="geometry" />
        </mxCell>
        <mxCell id="bM8eNRjOvd8zT3DbbcMf-330" value="触发强制重置(force reset) dev分支到最新main分支" style="html=1;align=center;verticalAlign=top;rounded=1;absoluteArcSize=1;arcSize=10;dashed=0;whiteSpace=wrap;" vertex="1" parent="1">
          <mxGeometry x="180" y="1970" width="140" height="40" as="geometry" />
        </mxCell>
      </root>
    </mxGraphModel>
  </diagram>
</mxfile>
